# Blender v3.0.1 OBJ File: 'gem.blend'
# www.blender.org
mtllib 2.mtl
o Cylinder.001_Cylinder.002
v 0.019437 0.009770 0.109938
v -0.299614 1.970470 -0.122145
v -0.074026 1.861577 0.065344
v 0.215633 0.229954 -0.047264
v -0.009247 1.819366 -0.057062
v 0.155621 0.128723 0.108419
v 0.098574 0.157997 0.218595
v -0.131121 1.781438 0.208587
v -0.384010 1.803108 0.176185
v 0.033897 0.094393 0.209471
v -0.138518 0.098967 0.187256
v -0.191371 0.126804 0.180766
v -0.423885 1.770166 0.170635
v -0.247781 0.139003 -0.108223
v -0.484046 1.808880 -0.118517
v -0.244815 0.137327 -0.109685
v -0.313424 1.889649 -0.217206
v -0.481497 1.811600 -0.120116
v 0.002335 0.212836 -0.249216
v -0.228059 1.841215 -0.259254
v -0.160996 1.892193 -0.189998
v 0.097536 0.164645 -0.166133
vt 0.800000 0.945233
vt 0.800000 0.535323
vt 0.883158 0.526247
vt 1.000000 0.549441
vt 1.000000 0.950759
vt 0.907567 0.963289
vt 0.749941 0.521858
vt 0.630259 0.959503
vt 0.600000 0.952754
vt 0.600000 0.537814
vt 0.633235 0.529063
vt 0.400000 0.964885
vt 0.400000 0.543250
vt 0.397749 0.965472
vt 0.260264 0.979053
vt 0.200000 0.964139
vt 0.200000 0.552982
vt 0.397905 0.542734
vt 0.131137 0.974303
vt 0.000000 0.950759
vt 0.000000 0.549441
vt 0.118057 0.537592
vt 0.181819 0.000000
vt 0.198868 0.029530
vt 0.198989 0.039920
vt 0.150452 0.055442
vt 0.150130 0.054888
vt 0.363637 0.000000
vt 0.375002 0.019684
vt 0.346588 0.029530
vt 0.909091 0.000000
vt 0.940780 0.054888
vt 0.892100 0.069355
vt 0.880902 0.048826
vt 0.725678 0.057768
vt 0.711639 0.027080
vt 0.727273 0.000000
vt 0.755462 0.048826
vt 0.545455 0.000000
vt 0.561089 0.027080
vt 0.540229 0.034205
vt 0.534090 0.019684
vt 0.251767 0.435518
vt 0.297803 0.412416
vt 0.303190 0.419620
vt 0.272728 0.472382
vt 0.251847 0.436215
vt 0.080056 0.453582
vt 0.111791 0.436215
vt 0.090910 0.472382
vt 0.829036 0.453582
vt 0.818182 0.472382
vt 0.803220 0.446467
vt 0.819846 0.437568
vt 0.651326 0.446467
vt 0.636364 0.472382
vt 0.609311 0.425525
vt 0.631952 0.414840
vt 0.464225 0.401006
vt 0.481599 0.425525
vt 0.454546 0.472382
vt 0.424084 0.419620
vn 0.8942 0.1292 0.4287
vn -0.1281 -0.0120 0.9917
vn -0.9733 -0.1366 0.1842
vn -0.4735 -0.0724 -0.8778
vn 0.6807 0.0918 -0.7268
vn -0.4706 -0.8807 0.0547
vn -0.1040 -0.7502 0.6530
vn -0.0116 -0.8707 -0.4917
vn 0.6386 -0.7340 -0.2311
vn 0.5814 -0.6596 0.4763
vn -0.6386 0.7340 0.2311
vn -0.5814 0.6596 -0.4763
vn 0.1040 0.7502 -0.6530
vn 0.4706 0.8807 -0.0547
vn 0.0116 0.8707 0.4917
usemtl None
s off
f 8/1/1 7/2/1 6/3/1 4/4/1 5/5/1 3/6/1
f 10/7/2 7/2/2 8/1/2 9/8/2 13/9/2 12/10/2 11/11/2
f 12/10/3 13/9/3 15/12/3 14/13/3
f 14/13/4 15/12/4 18/14/4 17/15/4 20/16/4 19/17/4 16/18/4
f 19/17/5 20/16/5 21/19/5 5/20/5 4/21/5 22/22/5
f 1/23/6 11/24/6 12/25/6 14/26/6 16/27/6
f 1/28/7 10/29/7 11/30/7
f 1/31/8 16/32/8 19/33/8 22/34/8
f 4/35/9 6/36/9 1/37/9 22/38/9
f 1/39/10 6/40/10 7/41/10 10/42/10
f 15/43/11 13/44/11 9/45/11 2/46/11 18/47/11
f 17/48/12 18/49/12 2/50/12
f 17/51/13 2/52/13 21/53/13 20/54/13
f 21/55/14 2/56/14 3/57/14 5/58/14
f 8/59/15 3/60/15 2/61/15 9/62/15
o Cylinder.002_Cylinder.003
v -0.015724 -0.011354 0.052181
v 0.224090 1.926101 0.486642
v 0.250133 1.862742 0.321000
v -0.084454 0.236459 -0.170146
v 0.088093 1.822057 0.276052
v 0.202778 0.200696 -0.118335
v 0.374331 1.777156 0.325292
v 0.392066 1.797585 0.445643
v 0.204783 0.159349 -0.081913
v 0.234116 0.111228 0.159948
v 0.403965 1.672034 0.599169
v 0.294062 1.724417 0.668582
v 0.164599 0.064241 0.177183
v -0.035421 0.076328 0.275800
v 0.136205 1.653457 0.719615
v 0.020213 1.768272 0.610622
v -0.048427 0.068207 0.260183
v -0.205136 0.133563 0.098412
v -0.230204 0.173062 0.077232
v -0.059161 1.744832 0.519539
v 0.049187 1.852778 0.365397
v -0.095929 0.219824 -0.156367
vt 0.800000 0.957009
vt 0.800000 0.545347
vt 1.000000 0.542935
vt 1.000000 0.956984
vt 0.891722 0.973970
vt 0.768327 0.537956
vt 0.724469 0.970467
vt 0.600000 0.951067
vt 0.600000 0.543492
vt 0.551529 0.531597
vt 0.512994 0.965418
vt 0.400000 0.947760
vt 0.400000 0.535922
vt 0.388191 0.532588
vt 0.274837 0.964878
vt 0.200000 0.951065
vt 0.200000 0.540627
vt 0.228607 0.533253
vt 0.060855 0.969342
vt 0.000000 0.956984
vt 0.000000 0.542935
vt 0.013921 0.539583
vt 0.162358 0.033708
vt 0.181819 0.000000
vt 0.201884 0.034754
vt 0.163352 0.037360
vt 0.363637 0.000000
vt 0.390390 0.046338
vt 0.347531 0.049027
vt 0.343572 0.034754
vt 0.888087 0.036380
vt 0.909091 0.000000
vt 0.928552 0.033708
vt 0.699475 0.048148
vt 0.727273 0.000000
vt 0.748277 0.036380
vt 0.746666 0.045113
vt 0.521588 0.055426
vt 0.518702 0.046338
vt 0.545455 0.000000
vt 0.573253 0.048148
vt 0.572338 0.052278
vt 0.267514 0.415381
vt 0.291355 0.440119
vt 0.272728 0.472382
vt 0.248477 0.430377
vt 0.066174 0.429539
vt 0.092852 0.408562
vt 0.115161 0.430377
vt 0.090910 0.472382
vt 0.842917 0.429539
vt 0.818182 0.472382
vt 0.798720 0.438673
vt 0.827640 0.414723
vt 0.655826 0.438673
vt 0.636364 0.472382
vt 0.620866 0.445539
vt 0.643518 0.425996
vt 0.452277 0.426429
vt 0.470044 0.445539
vt 0.454546 0.472382
vt 0.435919 0.440119
vn 0.2016 0.2449 -0.9484
vn 0.9885 -0.0699 -0.1338
vn 0.4094 -0.2882 0.8657
vn -0.7355 -0.1082 0.6688
vn -0.8640 0.2213 -0.4523
vn 0.1277 -0.9195 0.3718
vn 0.5061 -0.8321 -0.2269
vn -0.5589 -0.8001 0.2182
vn -0.6048 -0.6388 -0.4755
vn 0.0534 -0.6586 -0.7506
vn 0.6048 0.6388 0.4755
vn -0.0534 0.6586 0.7506
vn -0.5061 0.8321 0.2269
vn -0.1277 0.9195 -0.3718
vn 0.5589 0.8001 -0.2182
usemtl None
s off
f 29/63/16 28/64/16 26/65/16 27/66/16 25/67/16
f 31/68/17 28/64/17 29/63/17 30/69/17 33/70/17 32/71/17
f 35/72/18 32/71/18 33/70/18 34/73/18 37/74/18 36/75/18
f 39/76/19 36/75/19 37/74/19 38/77/19 42/78/19 41/79/19 40/80/19
f 42/78/20 43/81/20 27/82/20 26/83/20 44/84/20 41/79/20
f 39/85/21 23/86/21 35/87/21 36/88/21
f 23/89/22 31/90/22 32/91/22 35/92/22
f 40/93/23 23/94/23 39/95/23
f 44/96/24 23/97/24 40/98/24 41/99/24
f 28/100/25 31/101/25 23/102/25 44/103/25 26/104/25
f 33/105/26 30/106/26 24/107/26 34/108/26
f 38/109/27 37/110/27 34/111/27 24/112/27
f 38/113/28 24/114/28 43/115/28 42/116/28
f 43/117/29 24/118/29 25/119/29 27/120/29
f 29/121/30 25/122/30 24/123/30 30/124/30
o Cylinder.003_Cylinder.004
v -0.047700 0.003887 -0.050307
v 0.333728 1.963844 -0.164682
v 0.283799 1.798407 -0.409712
v -0.166044 0.152008 -0.181495
v 0.068994 1.768953 -0.358158
v -0.135830 0.119942 -0.185999
v 0.084360 0.099600 -0.235010
v 0.355225 1.740655 -0.421729
v 0.119201 0.116927 -0.244324
v 0.483577 1.811124 -0.228755
v 0.270722 0.133577 0.007188
v 0.509275 1.774701 -0.172117
v 0.406996 1.867361 -0.051873
v 0.267490 0.131435 0.010711
v 0.083554 0.209431 0.222129
v 0.317863 1.821366 0.046014
v 0.220122 1.881507 -0.005790
v 0.002174 0.169141 0.194450
v -0.186040 0.223176 0.105260
v 0.045603 1.816770 -0.068852
v 0.066009 1.855507 -0.216510
v -0.186560 0.145408 0.009067
vt 0.975977 0.529644
vt 1.000000 0.536330
vt 1.000000 0.947195
vt 0.854984 0.963505
vt 0.800000 0.952177
vt 0.800000 0.539588
vt 0.822265 0.533830
vt 0.641573 0.968913
vt 0.600000 0.959351
vt 0.600000 0.542342
vt 0.597053 0.541605
vt 0.483198 0.975254
vt 0.400000 0.958123
vt 0.400000 0.548531
vt 0.321586 0.970813
vt 0.200000 0.950345
vt 0.200000 0.545413
vt 0.344385 0.536455
vt 0.102607 0.964571
vt 0.000000 0.947195
vt 0.000000 0.536330
vt 0.128911 0.528852
vt 0.162082 0.060069
vt 0.155924 0.044852
vt 0.181819 0.000000
vt 0.211687 0.051733
vt 0.363637 0.000000
vt 0.384941 0.036901
vt 0.384223 0.043782
vt 0.334130 0.052564
vt 0.333769 0.051733
vt 0.909091 0.000000
vt 0.934986 0.044852
vt 0.898318 0.051164
vt 0.891197 0.030994
vt 0.712564 0.037055
vt 0.710057 0.029819
vt 0.727273 0.000000
vt 0.745167 0.030994
vt 0.562671 0.029819
vt 0.524151 0.036901
vt 0.545455 0.000000
vt 0.284205 0.429241
vt 0.292038 0.438935
vt 0.272728 0.472382
vt 0.258415 0.447592
vt 0.072583 0.440638
vt 0.090533 0.428316
vt 0.105223 0.447592
vt 0.090910 0.472382
vt 0.836509 0.440638
vt 0.818182 0.472382
vt 0.792813 0.428440
vt 0.815263 0.414113
vt 0.661733 0.428440
vt 0.636364 0.472382
vt 0.610440 0.427480
vt 0.642926 0.406749
vt 0.469910 0.415434
vt 0.480470 0.427480
vt 0.454546 0.472382
vt 0.435236 0.438935
vn -0.2232 -0.0738 -0.9720
vn 0.8481 -0.1778 -0.4991
vn 0.7473 -0.0361 0.6635
vn -0.3862 0.1555 0.9092
vn -0.9860 0.1322 -0.1016
vn 0.2359 -0.8270 0.5103
vn 0.3988 -0.8990 -0.1807
vn -0.4625 -0.6883 0.5589
vn -0.7311 -0.6746 -0.1021
vn -0.1988 -0.8048 -0.5592
vn 0.7311 0.6746 0.1021
vn 0.1988 0.8048 0.5592
vn -0.3988 0.8990 0.1807
vn -0.2359 0.8270 -0.5103
vn 0.4625 0.6883 -0.5589
usemtl None
s off
f 50/125/31 48/126/31 49/127/31 47/128/31 52/129/31 53/130/31 51/131/31
f 53/130/32 52/129/32 54/132/32 56/133/32 55/134/32
f 58/135/33 55/134/33 56/133/33 57/136/33 60/137/33 59/138/33
f 59/138/34 60/137/34 61/139/34 64/140/34 63/141/34 62/142/34
f 63/141/35 64/140/35 65/143/35 49/144/35 48/145/35 66/146/35
f 59/147/36 62/148/36 45/149/36 58/150/36
f 45/151/37 51/152/37 53/153/37 55/154/37 58/155/37
f 45/156/38 62/157/38 63/158/38 66/159/38
f 48/160/39 50/161/39 45/162/39 66/163/39
f 50/164/40 51/165/40 45/166/40
f 56/167/41 54/168/41 46/169/41 57/170/41
f 61/171/42 60/172/42 57/173/42 46/174/42
f 61/175/43 46/176/43 65/177/43 64/178/43
f 65/179/44 46/180/44 47/181/44 49/182/44
f 52/183/45 47/184/45 46/185/45 54/186/45
